<?xml version="1.0" encoding="utf-8" standalone="no"?>
<!DOCTYPE svg PUBLIC "-//W3C//DTD SVG 1.1//EN"
  "http://www.w3.org/Graphics/SVG/1.1/DTD/svg11.dtd">
<svg xmlns:xlink="http://www.w3.org/1999/xlink" width="884.803125pt" height="226.194375pt" viewBox="0 0 884.803125 226.194375" xmlns="http://www.w3.org/2000/svg" version="1.1">
 <metadata>
  <rdf:RDF xmlns:dc="http://purl.org/dc/elements/1.1/" xmlns:cc="http://creativecommons.org/ns#" xmlns:rdf="http://www.w3.org/1999/02/22-rdf-syntax-ns#">
   <cc:Work>
    <dc:type rdf:resource="http://purl.org/dc/dcmitype/StillImage"/>
    <dc:date>2023-02-09T17:23:04.672657</dc:date>
    <dc:format>image/svg+xml</dc:format>
    <dc:creator>
     <cc:Agent>
      <dc:title>Matplotlib v3.5.3, https://matplotlib.org/</dc:title>
     </cc:Agent>
    </dc:creator>
   </cc:Work>
  </rdf:RDF>
 </metadata>
 <defs>
  <style type="text/css">*{stroke-linejoin: round; stroke-linecap: butt}</style>
 </defs>
 <g id="figure_1">
  <g id="patch_1">
   <path d="M 0 226.194375 
L 884.803125 226.194375 
L 884.803125 0 
L 0 0 
z
" style="fill: #ffffff"/>
  </g>
  <g id="axes_1">
   <g id="patch_2">
    <path d="M 40.603125 188.638125 
L 877.603125 188.638125 
L 877.603125 22.318125 
L 40.603125 22.318125 
z
" style="fill: #ffffff"/>
   </g>
   <g id="patch_3">
    <path d="M 78.64858 188.638125 
L 88.159943 188.638125 
L 88.159943 30.238125 
L 78.64858 30.238125 
z
" clip-path="url(#p8cc206c358)" style="fill: #440154; stroke: #000000; stroke-linejoin: miter"/>
   </g>
   <g id="patch_4">
    <path d="M 88.159943 188.638125 
L 97.671307 188.638125 
L 97.671307 119.338125 
L 88.159943 119.338125 
z
" clip-path="url(#p8cc206c358)" style="fill: #450559; stroke: #000000; stroke-linejoin: miter"/>
   </g>
   <g id="patch_5">
    <path d="M 97.671307 188.638125 
L 107.18267 188.638125 
L 107.18267 123.298125 
L 97.671307 123.298125 
z
" clip-path="url(#p8cc206c358)" style="fill: #460a5d; stroke: #000000; stroke-linejoin: miter"/>
   </g>
   <g id="patch_6">
    <path d="M 107.18267 188.638125 
L 116.694034 188.638125 
L 116.694034 107.458125 
L 107.18267 107.458125 
z
" clip-path="url(#p8cc206c358)" style="fill: #470e61; stroke: #000000; stroke-linejoin: miter"/>
   </g>
   <g id="patch_7">
    <path d="M 116.694034 188.638125 
L 126.205398 188.638125 
L 126.205398 119.338125 
L 116.694034 119.338125 
z
" clip-path="url(#p8cc206c358)" style="fill: #471365; stroke: #000000; stroke-linejoin: miter"/>
   </g>
   <g id="patch_8">
    <path d="M 126.205398 188.638125 
L 135.716761 188.638125 
L 135.716761 143.098125 
L 126.205398 143.098125 
z
" clip-path="url(#p8cc206c358)" style="fill: #48186a; stroke: #000000; stroke-linejoin: miter"/>
   </g>
   <g id="patch_9">
    <path d="M 135.716761 188.638125 
L 145.228125 188.638125 
L 145.228125 162.898125 
L 135.716761 162.898125 
z
" clip-path="url(#p8cc206c358)" style="fill: #481c6e; stroke: #000000; stroke-linejoin: miter"/>
   </g>
   <g id="patch_10">
    <path d="M 145.228125 188.638125 
L 154.739489 188.638125 
L 154.739489 176.758125 
L 145.228125 176.758125 
z
" clip-path="url(#p8cc206c358)" style="fill: #482071; stroke: #000000; stroke-linejoin: miter"/>
   </g>
   <g id="patch_11">
    <path d="M 154.739489 188.638125 
L 164.250852 188.638125 
L 164.250852 176.758125 
L 154.739489 176.758125 
z
" clip-path="url(#p8cc206c358)" style="fill: #482475; stroke: #000000; stroke-linejoin: miter"/>
   </g>
   <g id="patch_12">
    <path d="M 164.250852 188.638125 
L 173.762216 188.638125 
L 173.762216 172.798125 
L 164.250852 172.798125 
z
" clip-path="url(#p8cc206c358)" style="fill: #482878; stroke: #000000; stroke-linejoin: miter"/>
   </g>
   <g id="patch_13">
    <path d="M 173.762216 188.638125 
L 183.27358 188.638125 
L 183.27358 170.818125 
L 173.762216 170.818125 
z
" clip-path="url(#p8cc206c358)" style="fill: #472d7b; stroke: #000000; stroke-linejoin: miter"/>
   </g>
   <g id="patch_14">
    <path d="M 183.27358 188.638125 
L 192.784943 188.638125 
L 192.784943 186.658125 
L 183.27358 186.658125 
z
" clip-path="url(#p8cc206c358)" style="fill: #46307e; stroke: #000000; stroke-linejoin: miter"/>
   </g>
   <g id="patch_15">
    <path d="M 192.784943 188.638125 
L 202.296307 188.638125 
L 202.296307 160.918125 
L 192.784943 160.918125 
z
" clip-path="url(#p8cc206c358)" style="fill: #463480; stroke: #000000; stroke-linejoin: miter"/>
   </g>
   <g id="patch_16">
    <path d="M 202.296307 188.638125 
L 211.80767 188.638125 
L 211.80767 184.678125 
L 202.296307 184.678125 
z
" clip-path="url(#p8cc206c358)" style="fill: #453882; stroke: #000000; stroke-linejoin: miter"/>
   </g>
   <g id="patch_17">
    <path d="M 211.80767 188.638125 
L 221.319034 188.638125 
L 221.319034 186.658125 
L 211.80767 186.658125 
z
" clip-path="url(#p8cc206c358)" style="fill: #443b84; stroke: #000000; stroke-linejoin: miter"/>
   </g>
   <g id="patch_18">
    <path d="M 221.319034 188.638125 
L 230.830398 188.638125 
L 230.830398 186.658125 
L 221.319034 186.658125 
z
" clip-path="url(#p8cc206c358)" style="fill: #424086; stroke: #000000; stroke-linejoin: miter"/>
   </g>
   <g id="patch_19">
    <path d="M 230.830398 188.638125 
L 240.341761 188.638125 
L 240.341761 188.638125 
L 230.830398 188.638125 
z
" clip-path="url(#p8cc206c358)" style="fill: #414487; stroke: #000000; stroke-linejoin: miter"/>
   </g>
   <g id="patch_20">
    <path d="M 240.341761 188.638125 
L 249.853125 188.638125 
L 249.853125 188.638125 
L 240.341761 188.638125 
z
" clip-path="url(#p8cc206c358)" style="fill: #3f4788; stroke: #000000; stroke-linejoin: miter"/>
   </g>
   <g id="patch_21">
    <path d="M 249.853125 188.638125 
L 259.364489 188.638125 
L 259.364489 186.658125 
L 249.853125 186.658125 
z
" clip-path="url(#p8cc206c358)" style="fill: #3e4a89; stroke: #000000; stroke-linejoin: miter"/>
   </g>
   <g id="patch_22">
    <path d="M 259.364489 188.638125 
L 268.875852 188.638125 
L 268.875852 188.638125 
L 259.364489 188.638125 
z
" clip-path="url(#p8cc206c358)" style="fill: #3d4e8a; stroke: #000000; stroke-linejoin: miter"/>
   </g>
   <g id="patch_23">
    <path d="M 268.875852 188.638125 
L 278.387216 188.638125 
L 278.387216 186.658125 
L 268.875852 186.658125 
z
" clip-path="url(#p8cc206c358)" style="fill: #3b528b; stroke: #000000; stroke-linejoin: miter"/>
   </g>
   <g id="patch_24">
    <path d="M 278.387216 188.638125 
L 287.89858 188.638125 
L 287.89858 188.638125 
L 278.387216 188.638125 
z
" clip-path="url(#p8cc206c358)" style="fill: #39558c; stroke: #000000; stroke-linejoin: miter"/>
   </g>
   <g id="patch_25">
    <path d="M 287.89858 188.638125 
L 297.409943 188.638125 
L 297.409943 188.638125 
L 287.89858 188.638125 
z
" clip-path="url(#p8cc206c358)" style="fill: #38598c; stroke: #000000; stroke-linejoin: miter"/>
   </g>
   <g id="patch_26">
    <path d="M 297.409943 188.638125 
L 306.921307 188.638125 
L 306.921307 186.658125 
L 297.409943 186.658125 
z
" clip-path="url(#p8cc206c358)" style="fill: #365c8d; stroke: #000000; stroke-linejoin: miter"/>
   </g>
   <g id="patch_27">
    <path d="M 306.921307 188.638125 
L 316.43267 188.638125 
L 316.43267 188.638125 
L 306.921307 188.638125 
z
" clip-path="url(#p8cc206c358)" style="fill: #355f8d; stroke: #000000; stroke-linejoin: miter"/>
   </g>
   <g id="patch_28">
    <path d="M 316.43267 188.638125 
L 325.944034 188.638125 
L 325.944034 188.638125 
L 316.43267 188.638125 
z
" clip-path="url(#p8cc206c358)" style="fill: #33638d; stroke: #000000; stroke-linejoin: miter"/>
   </g>
   <g id="patch_29">
    <path d="M 325.944034 188.638125 
L 335.455398 188.638125 
L 335.455398 178.738125 
L 325.944034 178.738125 
z
" clip-path="url(#p8cc206c358)" style="fill: #31668e; stroke: #000000; stroke-linejoin: miter"/>
   </g>
   <g id="patch_30">
    <path d="M 335.455398 188.638125 
L 344.966761 188.638125 
L 344.966761 160.918125 
L 335.455398 160.918125 
z
" clip-path="url(#p8cc206c358)" style="fill: #30698e; stroke: #000000; stroke-linejoin: miter"/>
   </g>
   <g id="patch_31">
    <path d="M 344.966761 188.638125 
L 354.478125 188.638125 
L 354.478125 151.018125 
L 344.966761 151.018125 
z
" clip-path="url(#p8cc206c358)" style="fill: #2f6c8e; stroke: #000000; stroke-linejoin: miter"/>
   </g>
   <g id="patch_32">
    <path d="M 354.478125 188.638125 
L 363.989489 188.638125 
L 363.989489 188.638125 
L 354.478125 188.638125 
z
" clip-path="url(#p8cc206c358)" style="fill: #2e6f8e; stroke: #000000; stroke-linejoin: miter"/>
   </g>
   <g id="patch_33">
    <path d="M 363.989489 188.638125 
L 373.500852 188.638125 
L 373.500852 184.678125 
L 363.989489 184.678125 
z
" clip-path="url(#p8cc206c358)" style="fill: #2c728e; stroke: #000000; stroke-linejoin: miter"/>
   </g>
   <g id="patch_34">
    <path d="M 373.500852 188.638125 
L 383.012216 188.638125 
L 383.012216 162.898125 
L 373.500852 162.898125 
z
" clip-path="url(#p8cc206c358)" style="fill: #2b758e; stroke: #000000; stroke-linejoin: miter"/>
   </g>
   <g id="patch_35">
    <path d="M 383.012216 188.638125 
L 392.52358 188.638125 
L 392.52358 178.738125 
L 383.012216 178.738125 
z
" clip-path="url(#p8cc206c358)" style="fill: #2a788e; stroke: #000000; stroke-linejoin: miter"/>
   </g>
   <g id="patch_36">
    <path d="M 392.52358 188.638125 
L 402.034943 188.638125 
L 402.034943 176.758125 
L 392.52358 176.758125 
z
" clip-path="url(#p8cc206c358)" style="fill: #297b8e; stroke: #000000; stroke-linejoin: miter"/>
   </g>
   <g id="patch_37">
    <path d="M 402.034943 188.638125 
L 411.546307 188.638125 
L 411.546307 147.058125 
L 402.034943 147.058125 
z
" clip-path="url(#p8cc206c358)" style="fill: #277e8e; stroke: #000000; stroke-linejoin: miter"/>
   </g>
   <g id="patch_38">
    <path d="M 411.546307 188.638125 
L 421.05767 188.638125 
L 421.05767 170.818125 
L 411.546307 170.818125 
z
" clip-path="url(#p8cc206c358)" style="fill: #26828e; stroke: #000000; stroke-linejoin: miter"/>
   </g>
   <g id="patch_39">
    <path d="M 421.05767 188.638125 
L 430.569034 188.638125 
L 430.569034 178.738125 
L 421.05767 178.738125 
z
" clip-path="url(#p8cc206c358)" style="fill: #25848e; stroke: #000000; stroke-linejoin: miter"/>
   </g>
   <g id="patch_40">
    <path d="M 430.569034 188.638125 
L 440.080398 188.638125 
L 440.080398 101.518125 
L 430.569034 101.518125 
z
" clip-path="url(#p8cc206c358)" style="fill: #24878e; stroke: #000000; stroke-linejoin: miter"/>
   </g>
   <g id="patch_41">
    <path d="M 440.080398 188.638125 
L 449.591761 188.638125 
L 449.591761 149.038125 
L 440.080398 149.038125 
z
" clip-path="url(#p8cc206c358)" style="fill: #238a8d; stroke: #000000; stroke-linejoin: miter"/>
   </g>
   <g id="patch_42">
    <path d="M 449.591761 188.638125 
L 459.103125 188.638125 
L 459.103125 147.058125 
L 449.591761 147.058125 
z
" clip-path="url(#p8cc206c358)" style="fill: #228d8d; stroke: #000000; stroke-linejoin: miter"/>
   </g>
   <g id="patch_43">
    <path d="M 459.103125 188.638125 
L 468.614489 188.638125 
L 468.614489 156.958125 
L 459.103125 156.958125 
z
" clip-path="url(#p8cc206c358)" style="fill: #21918c; stroke: #000000; stroke-linejoin: miter"/>
   </g>
   <g id="patch_44">
    <path d="M 468.614489 188.638125 
L 478.125852 188.638125 
L 478.125852 168.838125 
L 468.614489 168.838125 
z
" clip-path="url(#p8cc206c358)" style="fill: #20938c; stroke: #000000; stroke-linejoin: miter"/>
   </g>
   <g id="patch_45">
    <path d="M 478.125852 188.638125 
L 487.637216 188.638125 
L 487.637216 186.658125 
L 478.125852 186.658125 
z
" clip-path="url(#p8cc206c358)" style="fill: #1f968b; stroke: #000000; stroke-linejoin: miter"/>
   </g>
   <g id="patch_46">
    <path d="M 487.637216 188.638125 
L 497.14858 188.638125 
L 497.14858 133.198125 
L 487.637216 133.198125 
z
" clip-path="url(#p8cc206c358)" style="fill: #1f998a; stroke: #000000; stroke-linejoin: miter"/>
   </g>
   <g id="patch_47">
    <path d="M 497.14858 188.638125 
L 506.659943 188.638125 
L 506.659943 184.678125 
L 497.14858 184.678125 
z
" clip-path="url(#p8cc206c358)" style="fill: #1e9c89; stroke: #000000; stroke-linejoin: miter"/>
   </g>
   <g id="patch_48">
    <path d="M 506.659943 188.638125 
L 516.171307 188.638125 
L 516.171307 174.778125 
L 506.659943 174.778125 
z
" clip-path="url(#p8cc206c358)" style="fill: #1fa088; stroke: #000000; stroke-linejoin: miter"/>
   </g>
   <g id="patch_49">
    <path d="M 516.171307 188.638125 
L 525.68267 188.638125 
L 525.68267 178.738125 
L 516.171307 178.738125 
z
" clip-path="url(#p8cc206c358)" style="fill: #1fa287; stroke: #000000; stroke-linejoin: miter"/>
   </g>
   <g id="patch_50">
    <path d="M 525.68267 188.638125 
L 535.194034 188.638125 
L 535.194034 158.938125 
L 525.68267 158.938125 
z
" clip-path="url(#p8cc206c358)" style="fill: #21a585; stroke: #000000; stroke-linejoin: miter"/>
   </g>
   <g id="patch_51">
    <path d="M 535.194034 188.638125 
L 544.705398 188.638125 
L 544.705398 154.978125 
L 535.194034 154.978125 
z
" clip-path="url(#p8cc206c358)" style="fill: #22a884; stroke: #000000; stroke-linejoin: miter"/>
   </g>
   <g id="patch_52">
    <path d="M 544.705398 188.638125 
L 554.216761 188.638125 
L 554.216761 133.198125 
L 544.705398 133.198125 
z
" clip-path="url(#p8cc206c358)" style="fill: #25ab82; stroke: #000000; stroke-linejoin: miter"/>
   </g>
   <g id="patch_53">
    <path d="M 554.216761 188.638125 
L 563.728125 188.638125 
L 563.728125 139.138125 
L 554.216761 139.138125 
z
" clip-path="url(#p8cc206c358)" style="fill: #28ae80; stroke: #000000; stroke-linejoin: miter"/>
   </g>
   <g id="patch_54">
    <path d="M 563.728125 188.638125 
L 573.239489 188.638125 
L 573.239489 188.638125 
L 563.728125 188.638125 
z
" clip-path="url(#p8cc206c358)" style="fill: #2cb17e; stroke: #000000; stroke-linejoin: miter"/>
   </g>
   <g id="patch_55">
    <path d="M 573.239489 188.638125 
L 582.750852 188.638125 
L 582.750852 109.438125 
L 573.239489 109.438125 
z
" clip-path="url(#p8cc206c358)" style="fill: #2fb47c; stroke: #000000; stroke-linejoin: miter"/>
   </g>
   <g id="patch_56">
    <path d="M 582.750852 188.638125 
L 592.262216 188.638125 
L 592.262216 188.638125 
L 582.750852 188.638125 
z
" clip-path="url(#p8cc206c358)" style="fill: #34b679; stroke: #000000; stroke-linejoin: miter"/>
   </g>
   <g id="patch_57">
    <path d="M 592.262216 188.638125 
L 601.77358 188.638125 
L 601.77358 188.638125 
L 592.262216 188.638125 
z
" clip-path="url(#p8cc206c358)" style="fill: #38b977; stroke: #000000; stroke-linejoin: miter"/>
   </g>
   <g id="patch_58">
    <path d="M 601.77358 188.638125 
L 611.284943 188.638125 
L 611.284943 152.998125 
L 601.77358 152.998125 
z
" clip-path="url(#p8cc206c358)" style="fill: #3fbc73; stroke: #000000; stroke-linejoin: miter"/>
   </g>
   <g id="patch_59">
    <path d="M 611.284943 188.638125 
L 620.796307 188.638125 
L 620.796307 176.758125 
L 611.284943 176.758125 
z
" clip-path="url(#p8cc206c358)" style="fill: #44bf70; stroke: #000000; stroke-linejoin: miter"/>
   </g>
   <g id="patch_60">
    <path d="M 620.796307 188.638125 
L 630.30767 188.638125 
L 630.30767 172.798125 
L 620.796307 172.798125 
z
" clip-path="url(#p8cc206c358)" style="fill: #4ac16d; stroke: #000000; stroke-linejoin: miter"/>
   </g>
   <g id="patch_61">
    <path d="M 630.30767 188.638125 
L 639.819034 188.638125 
L 639.819034 172.798125 
L 630.30767 172.798125 
z
" clip-path="url(#p8cc206c358)" style="fill: #50c46a; stroke: #000000; stroke-linejoin: miter"/>
   </g>
   <g id="patch_62">
    <path d="M 639.819034 188.638125 
L 649.330398 188.638125 
L 649.330398 188.638125 
L 639.819034 188.638125 
z
" clip-path="url(#p8cc206c358)" style="fill: #56c667; stroke: #000000; stroke-linejoin: miter"/>
   </g>
   <g id="patch_63">
    <path d="M 649.330398 188.638125 
L 658.841761 188.638125 
L 658.841761 188.638125 
L 649.330398 188.638125 
z
" clip-path="url(#p8cc206c358)" style="fill: #5ec962; stroke: #000000; stroke-linejoin: miter"/>
   </g>
   <g id="patch_64">
    <path d="M 658.841761 188.638125 
L 668.353125 188.638125 
L 668.353125 152.998125 
L 658.841761 152.998125 
z
" clip-path="url(#p8cc206c358)" style="fill: #65cb5e; stroke: #000000; stroke-linejoin: miter"/>
   </g>
   <g id="patch_65">
    <path d="M 668.353125 188.638125 
L 677.864489 188.638125 
L 677.864489 188.638125 
L 668.353125 188.638125 
z
" clip-path="url(#p8cc206c358)" style="fill: #6ccd5a; stroke: #000000; stroke-linejoin: miter"/>
   </g>
   <g id="patch_66">
    <path d="M 677.864489 188.638125 
L 687.375852 188.638125 
L 687.375852 188.638125 
L 677.864489 188.638125 
z
" clip-path="url(#p8cc206c358)" style="fill: #73d056; stroke: #000000; stroke-linejoin: miter"/>
   </g>
   <g id="patch_67">
    <path d="M 687.375852 188.638125 
L 696.887216 188.638125 
L 696.887216 188.638125 
L 687.375852 188.638125 
z
" clip-path="url(#p8cc206c358)" style="fill: #7ad151; stroke: #000000; stroke-linejoin: miter"/>
   </g>
   <g id="patch_68">
    <path d="M 696.887216 188.638125 
L 706.39858 188.638125 
L 706.39858 154.978125 
L 696.887216 154.978125 
z
" clip-path="url(#p8cc206c358)" style="fill: #84d44b; stroke: #000000; stroke-linejoin: miter"/>
   </g>
   <g id="patch_69">
    <path d="M 706.39858 188.638125 
L 715.909943 188.638125 
L 715.909943 143.098125 
L 706.39858 143.098125 
z
" clip-path="url(#p8cc206c358)" style="fill: #8bd646; stroke: #000000; stroke-linejoin: miter"/>
   </g>
   <g id="patch_70">
    <path d="M 715.909943 188.638125 
L 725.421307 188.638125 
L 725.421307 178.738125 
L 715.909943 178.738125 
z
" clip-path="url(#p8cc206c358)" style="fill: #93d741; stroke: #000000; stroke-linejoin: miter"/>
   </g>
   <g id="patch_71">
    <path d="M 725.421307 188.638125 
L 734.93267 188.638125 
L 734.93267 143.098125 
L 725.421307 143.098125 
z
" clip-path="url(#p8cc206c358)" style="fill: #9bd93c; stroke: #000000; stroke-linejoin: miter"/>
   </g>
   <g id="patch_72">
    <path d="M 734.93267 188.638125 
L 744.444034 188.638125 
L 744.444034 141.118125 
L 734.93267 141.118125 
z
" clip-path="url(#p8cc206c358)" style="fill: #a2da37; stroke: #000000; stroke-linejoin: miter"/>
   </g>
   <g id="patch_73">
    <path d="M 744.444034 188.638125 
L 753.955398 188.638125 
L 753.955398 85.678125 
L 744.444034 85.678125 
z
" clip-path="url(#p8cc206c358)" style="fill: #addc30; stroke: #000000; stroke-linejoin: miter"/>
   </g>
   <g id="patch_74">
    <path d="M 753.955398 188.638125 
L 763.466761 188.638125 
L 763.466761 117.358125 
L 753.955398 117.358125 
z
" clip-path="url(#p8cc206c358)" style="fill: #b5de2b; stroke: #000000; stroke-linejoin: miter"/>
   </g>
   <g id="patch_75">
    <path d="M 763.466761 188.638125 
L 772.978125 188.638125 
L 772.978125 186.658125 
L 763.466761 186.658125 
z
" clip-path="url(#p8cc206c358)" style="fill: #bddf26; stroke: #000000; stroke-linejoin: miter"/>
   </g>
   <g id="patch_76">
    <path d="M 772.978125 188.638125 
L 782.489489 188.638125 
L 782.489489 184.678125 
L 772.978125 184.678125 
z
" clip-path="url(#p8cc206c358)" style="fill: #c5e021; stroke: #000000; stroke-linejoin: miter"/>
   </g>
   <g id="patch_77">
    <path d="M 782.489489 188.638125 
L 792.000852 188.638125 
L 792.000852 188.638125 
L 782.489489 188.638125 
z
" clip-path="url(#p8cc206c358)" style="fill: #cde11d; stroke: #000000; stroke-linejoin: miter"/>
   </g>
   <g id="patch_78">
    <path d="M 792.000852 188.638125 
L 801.512216 188.638125 
L 801.512216 164.878125 
L 792.000852 164.878125 
z
" clip-path="url(#p8cc206c358)" style="fill: #d8e219; stroke: #000000; stroke-linejoin: miter"/>
   </g>
   <g id="patch_79">
    <path d="M 801.512216 188.638125 
L 811.02358 188.638125 
L 811.02358 154.978125 
L 801.512216 154.978125 
z
" clip-path="url(#p8cc206c358)" style="fill: #dfe318; stroke: #000000; stroke-linejoin: miter"/>
   </g>
   <g id="patch_80">
    <path d="M 811.02358 188.638125 
L 820.534943 188.638125 
L 820.534943 158.938125 
L 811.02358 158.938125 
z
" clip-path="url(#p8cc206c358)" style="fill: #e7e419; stroke: #000000; stroke-linejoin: miter"/>
   </g>
   <g id="patch_81">
    <path d="M 820.534943 188.638125 
L 830.046307 188.638125 
L 830.046307 188.638125 
L 820.534943 188.638125 
z
" clip-path="url(#p8cc206c358)" style="fill: #efe51c; stroke: #000000; stroke-linejoin: miter"/>
   </g>
   <g id="patch_82">
    <path d="M 830.046307 188.638125 
L 839.55767 188.638125 
L 839.55767 158.938125 
L 830.046307 158.938125 
z
" clip-path="url(#p8cc206c358)" style="fill: #f6e620; stroke: #000000; stroke-linejoin: miter"/>
   </g>
   <g id="matplotlib.axis_1">
    <g id="xtick_1">
     <g id="line2d_1">
      <defs>
       <path id="m5642d904a9" d="M 0 0 
L 0 3.5 
" style="stroke: #000000; stroke-width: 0.8"/>
      </defs>
      <g>
       <use xlink:href="#m5642d904a9" x="77.967759" y="188.638125" style="stroke: #000000; stroke-width: 0.8"/>
      </g>
     </g>
     <g id="text_1">
      <!-- 0 -->
      <g transform="translate(74.786509 203.236563)scale(0.1 -0.1)">
       <defs>
        <path id="DejaVuSans-30" d="M 2034 4250 
Q 1547 4250 1301 3770 
Q 1056 3291 1056 2328 
Q 1056 1369 1301 889 
Q 1547 409 2034 409 
Q 2525 409 2770 889 
Q 3016 1369 3016 2328 
Q 3016 3291 2770 3770 
Q 2525 4250 2034 4250 
z
M 2034 4750 
Q 2819 4750 3233 4129 
Q 3647 3509 3647 2328 
Q 3647 1150 3233 529 
Q 2819 -91 2034 -91 
Q 1250 -91 836 529 
Q 422 1150 422 2328 
Q 422 3509 836 4129 
Q 1250 4750 2034 4750 
z
" transform="scale(0.015625)"/>
       </defs>
       <use xlink:href="#DejaVuSans-30"/>
      </g>
     </g>
    </g>
    <g id="xtick_2">
     <g id="line2d_2">
      <g>
       <use xlink:href="#m5642d904a9" x="208.89487" y="188.638125" style="stroke: #000000; stroke-width: 0.8"/>
      </g>
     </g>
     <g id="text_2">
      <!-- 10 -->
      <g transform="translate(202.53237 203.236563)scale(0.1 -0.1)">
       <defs>
        <path id="DejaVuSans-31" d="M 794 531 
L 1825 531 
L 1825 4091 
L 703 3866 
L 703 4441 
L 1819 4666 
L 2450 4666 
L 2450 531 
L 3481 531 
L 3481 0 
L 794 0 
L 794 531 
z
" transform="scale(0.015625)"/>
       </defs>
       <use xlink:href="#DejaVuSans-31"/>
       <use xlink:href="#DejaVuSans-30" x="63.623047"/>
      </g>
     </g>
    </g>
    <g id="xtick_3">
     <g id="line2d_3">
      <g>
       <use xlink:href="#m5642d904a9" x="339.821981" y="188.638125" style="stroke: #000000; stroke-width: 0.8"/>
      </g>
     </g>
     <g id="text_3">
      <!-- 20 -->
      <g transform="translate(333.459481 203.236563)scale(0.1 -0.1)">
       <defs>
        <path id="DejaVuSans-32" d="M 1228 531 
L 3431 531 
L 3431 0 
L 469 0 
L 469 531 
Q 828 903 1448 1529 
Q 2069 2156 2228 2338 
Q 2531 2678 2651 2914 
Q 2772 3150 2772 3378 
Q 2772 3750 2511 3984 
Q 2250 4219 1831 4219 
Q 1534 4219 1204 4116 
Q 875 4013 500 3803 
L 500 4441 
Q 881 4594 1212 4672 
Q 1544 4750 1819 4750 
Q 2544 4750 2975 4387 
Q 3406 4025 3406 3419 
Q 3406 3131 3298 2873 
Q 3191 2616 2906 2266 
Q 2828 2175 2409 1742 
Q 1991 1309 1228 531 
z
" transform="scale(0.015625)"/>
       </defs>
       <use xlink:href="#DejaVuSans-32"/>
       <use xlink:href="#DejaVuSans-30" x="63.623047"/>
      </g>
     </g>
    </g>
    <g id="xtick_4">
     <g id="line2d_4">
      <g>
       <use xlink:href="#m5642d904a9" x="470.749092" y="188.638125" style="stroke: #000000; stroke-width: 0.8"/>
      </g>
     </g>
     <g id="text_4">
      <!-- 30 -->
      <g transform="translate(464.386592 203.236563)scale(0.1 -0.1)">
       <defs>
        <path id="DejaVuSans-33" d="M 2597 2516 
Q 3050 2419 3304 2112 
Q 3559 1806 3559 1356 
Q 3559 666 3084 287 
Q 2609 -91 1734 -91 
Q 1441 -91 1130 -33 
Q 819 25 488 141 
L 488 750 
Q 750 597 1062 519 
Q 1375 441 1716 441 
Q 2309 441 2620 675 
Q 2931 909 2931 1356 
Q 2931 1769 2642 2001 
Q 2353 2234 1838 2234 
L 1294 2234 
L 1294 2753 
L 1863 2753 
Q 2328 2753 2575 2939 
Q 2822 3125 2822 3475 
Q 2822 3834 2567 4026 
Q 2313 4219 1838 4219 
Q 1578 4219 1281 4162 
Q 984 4106 628 3988 
L 628 4550 
Q 988 4650 1302 4700 
Q 1616 4750 1894 4750 
Q 2613 4750 3031 4423 
Q 3450 4097 3450 3541 
Q 3450 3153 3228 2886 
Q 3006 2619 2597 2516 
z
" transform="scale(0.015625)"/>
       </defs>
       <use xlink:href="#DejaVuSans-33"/>
       <use xlink:href="#DejaVuSans-30" x="63.623047"/>
      </g>
     </g>
    </g>
    <g id="xtick_5">
     <g id="line2d_5">
      <g>
       <use xlink:href="#m5642d904a9" x="601.676203" y="188.638125" style="stroke: #000000; stroke-width: 0.8"/>
      </g>
     </g>
     <g id="text_5">
      <!-- 40 -->
      <g transform="translate(595.313703 203.236563)scale(0.1 -0.1)">
       <defs>
        <path id="DejaVuSans-34" d="M 2419 4116 
L 825 1625 
L 2419 1625 
L 2419 4116 
z
M 2253 4666 
L 3047 4666 
L 3047 1625 
L 3713 1625 
L 3713 1100 
L 3047 1100 
L 3047 0 
L 2419 0 
L 2419 1100 
L 313 1100 
L 313 1709 
L 2253 4666 
z
" transform="scale(0.015625)"/>
       </defs>
       <use xlink:href="#DejaVuSans-34"/>
       <use xlink:href="#DejaVuSans-30" x="63.623047"/>
      </g>
     </g>
    </g>
    <g id="xtick_6">
     <g id="line2d_6">
      <g>
       <use xlink:href="#m5642d904a9" x="732.603313" y="188.638125" style="stroke: #000000; stroke-width: 0.8"/>
      </g>
     </g>
     <g id="text_6">
      <!-- 50 -->
      <g transform="translate(726.240813 203.236563)scale(0.1 -0.1)">
       <defs>
        <path id="DejaVuSans-35" d="M 691 4666 
L 3169 4666 
L 3169 4134 
L 1269 4134 
L 1269 2991 
Q 1406 3038 1543 3061 
Q 1681 3084 1819 3084 
Q 2600 3084 3056 2656 
Q 3513 2228 3513 1497 
Q 3513 744 3044 326 
Q 2575 -91 1722 -91 
Q 1428 -91 1123 -41 
Q 819 9 494 109 
L 494 744 
Q 775 591 1075 516 
Q 1375 441 1709 441 
Q 2250 441 2565 725 
Q 2881 1009 2881 1497 
Q 2881 1984 2565 2268 
Q 2250 2553 1709 2553 
Q 1456 2553 1204 2497 
Q 953 2441 691 2322 
L 691 4666 
z
" transform="scale(0.015625)"/>
       </defs>
       <use xlink:href="#DejaVuSans-35"/>
       <use xlink:href="#DejaVuSans-30" x="63.623047"/>
      </g>
     </g>
    </g>
    <g id="xtick_7">
     <g id="line2d_7">
      <g>
       <use xlink:href="#m5642d904a9" x="863.530424" y="188.638125" style="stroke: #000000; stroke-width: 0.8"/>
      </g>
     </g>
     <g id="text_7">
      <!-- 60 -->
      <g transform="translate(857.167924 203.236563)scale(0.1 -0.1)">
       <defs>
        <path id="DejaVuSans-36" d="M 2113 2584 
Q 1688 2584 1439 2293 
Q 1191 2003 1191 1497 
Q 1191 994 1439 701 
Q 1688 409 2113 409 
Q 2538 409 2786 701 
Q 3034 994 3034 1497 
Q 3034 2003 2786 2293 
Q 2538 2584 2113 2584 
z
M 3366 4563 
L 3366 3988 
Q 3128 4100 2886 4159 
Q 2644 4219 2406 4219 
Q 1781 4219 1451 3797 
Q 1122 3375 1075 2522 
Q 1259 2794 1537 2939 
Q 1816 3084 2150 3084 
Q 2853 3084 3261 2657 
Q 3669 2231 3669 1497 
Q 3669 778 3244 343 
Q 2819 -91 2113 -91 
Q 1303 -91 875 529 
Q 447 1150 447 2328 
Q 447 3434 972 4092 
Q 1497 4750 2381 4750 
Q 2619 4750 2861 4703 
Q 3103 4656 3366 4563 
z
" transform="scale(0.015625)"/>
       </defs>
       <use xlink:href="#DejaVuSans-36"/>
       <use xlink:href="#DejaVuSans-30" x="63.623047"/>
      </g>
     </g>
    </g>
    <g id="text_8">
     <!-- Mean Age (Ma) -->
     <g transform="translate(421.350781 216.914688)scale(0.1 -0.1)">
      <defs>
       <path id="DejaVuSans-4d" d="M 628 4666 
L 1569 4666 
L 2759 1491 
L 3956 4666 
L 4897 4666 
L 4897 0 
L 4281 0 
L 4281 4097 
L 3078 897 
L 2444 897 
L 1241 4097 
L 1241 0 
L 628 0 
L 628 4666 
z
" transform="scale(0.015625)"/>
       <path id="DejaVuSans-65" d="M 3597 1894 
L 3597 1613 
L 953 1613 
Q 991 1019 1311 708 
Q 1631 397 2203 397 
Q 2534 397 2845 478 
Q 3156 559 3463 722 
L 3463 178 
Q 3153 47 2828 -22 
Q 2503 -91 2169 -91 
Q 1331 -91 842 396 
Q 353 884 353 1716 
Q 353 2575 817 3079 
Q 1281 3584 2069 3584 
Q 2775 3584 3186 3129 
Q 3597 2675 3597 1894 
z
M 3022 2063 
Q 3016 2534 2758 2815 
Q 2500 3097 2075 3097 
Q 1594 3097 1305 2825 
Q 1016 2553 972 2059 
L 3022 2063 
z
" transform="scale(0.015625)"/>
       <path id="DejaVuSans-61" d="M 2194 1759 
Q 1497 1759 1228 1600 
Q 959 1441 959 1056 
Q 959 750 1161 570 
Q 1363 391 1709 391 
Q 2188 391 2477 730 
Q 2766 1069 2766 1631 
L 2766 1759 
L 2194 1759 
z
M 3341 1997 
L 3341 0 
L 2766 0 
L 2766 531 
Q 2569 213 2275 61 
Q 1981 -91 1556 -91 
Q 1019 -91 701 211 
Q 384 513 384 1019 
Q 384 1609 779 1909 
Q 1175 2209 1959 2209 
L 2766 2209 
L 2766 2266 
Q 2766 2663 2505 2880 
Q 2244 3097 1772 3097 
Q 1472 3097 1187 3025 
Q 903 2953 641 2809 
L 641 3341 
Q 956 3463 1253 3523 
Q 1550 3584 1831 3584 
Q 2591 3584 2966 3190 
Q 3341 2797 3341 1997 
z
" transform="scale(0.015625)"/>
       <path id="DejaVuSans-6e" d="M 3513 2113 
L 3513 0 
L 2938 0 
L 2938 2094 
Q 2938 2591 2744 2837 
Q 2550 3084 2163 3084 
Q 1697 3084 1428 2787 
Q 1159 2491 1159 1978 
L 1159 0 
L 581 0 
L 581 3500 
L 1159 3500 
L 1159 2956 
Q 1366 3272 1645 3428 
Q 1925 3584 2291 3584 
Q 2894 3584 3203 3211 
Q 3513 2838 3513 2113 
z
" transform="scale(0.015625)"/>
       <path id="DejaVuSans-20" transform="scale(0.015625)"/>
       <path id="DejaVuSans-41" d="M 2188 4044 
L 1331 1722 
L 3047 1722 
L 2188 4044 
z
M 1831 4666 
L 2547 4666 
L 4325 0 
L 3669 0 
L 3244 1197 
L 1141 1197 
L 716 0 
L 50 0 
L 1831 4666 
z
" transform="scale(0.015625)"/>
       <path id="DejaVuSans-67" d="M 2906 1791 
Q 2906 2416 2648 2759 
Q 2391 3103 1925 3103 
Q 1463 3103 1205 2759 
Q 947 2416 947 1791 
Q 947 1169 1205 825 
Q 1463 481 1925 481 
Q 2391 481 2648 825 
Q 2906 1169 2906 1791 
z
M 3481 434 
Q 3481 -459 3084 -895 
Q 2688 -1331 1869 -1331 
Q 1566 -1331 1297 -1286 
Q 1028 -1241 775 -1147 
L 775 -588 
Q 1028 -725 1275 -790 
Q 1522 -856 1778 -856 
Q 2344 -856 2625 -561 
Q 2906 -266 2906 331 
L 2906 616 
Q 2728 306 2450 153 
Q 2172 0 1784 0 
Q 1141 0 747 490 
Q 353 981 353 1791 
Q 353 2603 747 3093 
Q 1141 3584 1784 3584 
Q 2172 3584 2450 3431 
Q 2728 3278 2906 2969 
L 2906 3500 
L 3481 3500 
L 3481 434 
z
" transform="scale(0.015625)"/>
       <path id="DejaVuSans-28" d="M 1984 4856 
Q 1566 4138 1362 3434 
Q 1159 2731 1159 2009 
Q 1159 1288 1364 580 
Q 1569 -128 1984 -844 
L 1484 -844 
Q 1016 -109 783 600 
Q 550 1309 550 2009 
Q 550 2706 781 3412 
Q 1013 4119 1484 4856 
L 1984 4856 
z
" transform="scale(0.015625)"/>
       <path id="DejaVuSans-29" d="M 513 4856 
L 1013 4856 
Q 1481 4119 1714 3412 
Q 1947 2706 1947 2009 
Q 1947 1309 1714 600 
Q 1481 -109 1013 -844 
L 513 -844 
Q 928 -128 1133 580 
Q 1338 1288 1338 2009 
Q 1338 2731 1133 3434 
Q 928 4138 513 4856 
z
" transform="scale(0.015625)"/>
      </defs>
      <use xlink:href="#DejaVuSans-4d"/>
      <use xlink:href="#DejaVuSans-65" x="86.279297"/>
      <use xlink:href="#DejaVuSans-61" x="147.802734"/>
      <use xlink:href="#DejaVuSans-6e" x="209.082031"/>
      <use xlink:href="#DejaVuSans-20" x="272.460938"/>
      <use xlink:href="#DejaVuSans-41" x="304.248047"/>
      <use xlink:href="#DejaVuSans-67" x="372.65625"/>
      <use xlink:href="#DejaVuSans-65" x="436.132812"/>
      <use xlink:href="#DejaVuSans-20" x="497.65625"/>
      <use xlink:href="#DejaVuSans-28" x="529.443359"/>
      <use xlink:href="#DejaVuSans-4d" x="568.457031"/>
      <use xlink:href="#DejaVuSans-61" x="654.736328"/>
      <use xlink:href="#DejaVuSans-29" x="716.015625"/>
     </g>
    </g>
   </g>
   <g id="matplotlib.axis_2">
    <g id="ytick_1">
     <g id="line2d_8">
      <defs>
       <path id="mfeeee765f8" d="M 0 0 
L -3.5 0 
" style="stroke: #000000; stroke-width: 0.8"/>
      </defs>
      <g>
       <use xlink:href="#mfeeee765f8" x="40.603125" y="188.638125" style="stroke: #000000; stroke-width: 0.8"/>
      </g>
     </g>
     <g id="text_9">
      <!-- 0 -->
      <g transform="translate(27.240625 192.437344)scale(0.1 -0.1)">
       <use xlink:href="#DejaVuSans-30"/>
      </g>
     </g>
    </g>
    <g id="ytick_2">
     <g id="line2d_9">
      <g>
       <use xlink:href="#mfeeee765f8" x="40.603125" y="149.038125" style="stroke: #000000; stroke-width: 0.8"/>
      </g>
     </g>
     <g id="text_10">
      <!-- 20 -->
      <g transform="translate(20.878125 152.837344)scale(0.1 -0.1)">
       <use xlink:href="#DejaVuSans-32"/>
       <use xlink:href="#DejaVuSans-30" x="63.623047"/>
      </g>
     </g>
    </g>
    <g id="ytick_3">
     <g id="line2d_10">
      <g>
       <use xlink:href="#mfeeee765f8" x="40.603125" y="109.438125" style="stroke: #000000; stroke-width: 0.8"/>
      </g>
     </g>
     <g id="text_11">
      <!-- 40 -->
      <g transform="translate(20.878125 113.237344)scale(0.1 -0.1)">
       <use xlink:href="#DejaVuSans-34"/>
       <use xlink:href="#DejaVuSans-30" x="63.623047"/>
      </g>
     </g>
    </g>
    <g id="ytick_4">
     <g id="line2d_11">
      <g>
       <use xlink:href="#mfeeee765f8" x="40.603125" y="69.838125" style="stroke: #000000; stroke-width: 0.8"/>
      </g>
     </g>
     <g id="text_12">
      <!-- 60 -->
      <g transform="translate(20.878125 73.637344)scale(0.1 -0.1)">
       <use xlink:href="#DejaVuSans-36"/>
       <use xlink:href="#DejaVuSans-30" x="63.623047"/>
      </g>
     </g>
    </g>
    <g id="ytick_5">
     <g id="line2d_12">
      <g>
       <use xlink:href="#mfeeee765f8" x="40.603125" y="30.238125" style="stroke: #000000; stroke-width: 0.8"/>
      </g>
     </g>
     <g id="text_13">
      <!-- 80 -->
      <g transform="translate(20.878125 34.037344)scale(0.1 -0.1)">
       <defs>
        <path id="DejaVuSans-38" d="M 2034 2216 
Q 1584 2216 1326 1975 
Q 1069 1734 1069 1313 
Q 1069 891 1326 650 
Q 1584 409 2034 409 
Q 2484 409 2743 651 
Q 3003 894 3003 1313 
Q 3003 1734 2745 1975 
Q 2488 2216 2034 2216 
z
M 1403 2484 
Q 997 2584 770 2862 
Q 544 3141 544 3541 
Q 544 4100 942 4425 
Q 1341 4750 2034 4750 
Q 2731 4750 3128 4425 
Q 3525 4100 3525 3541 
Q 3525 3141 3298 2862 
Q 3072 2584 2669 2484 
Q 3125 2378 3379 2068 
Q 3634 1759 3634 1313 
Q 3634 634 3220 271 
Q 2806 -91 2034 -91 
Q 1263 -91 848 271 
Q 434 634 434 1313 
Q 434 1759 690 2068 
Q 947 2378 1403 2484 
z
M 1172 3481 
Q 1172 3119 1398 2916 
Q 1625 2713 2034 2713 
Q 2441 2713 2670 2916 
Q 2900 3119 2900 3481 
Q 2900 3844 2670 4047 
Q 2441 4250 2034 4250 
Q 1625 4250 1398 4047 
Q 1172 3844 1172 3481 
z
" transform="scale(0.015625)"/>
       </defs>
       <use xlink:href="#DejaVuSans-38"/>
       <use xlink:href="#DejaVuSans-30" x="63.623047"/>
      </g>
     </g>
    </g>
    <g id="text_14">
     <!-- Number of compiled VGPs -->
     <g transform="translate(14.798438 170.859375)rotate(-90)scale(0.1 -0.1)">
      <defs>
       <path id="DejaVuSans-4e" d="M 628 4666 
L 1478 4666 
L 3547 763 
L 3547 4666 
L 4159 4666 
L 4159 0 
L 3309 0 
L 1241 3903 
L 1241 0 
L 628 0 
L 628 4666 
z
" transform="scale(0.015625)"/>
       <path id="DejaVuSans-75" d="M 544 1381 
L 544 3500 
L 1119 3500 
L 1119 1403 
Q 1119 906 1312 657 
Q 1506 409 1894 409 
Q 2359 409 2629 706 
Q 2900 1003 2900 1516 
L 2900 3500 
L 3475 3500 
L 3475 0 
L 2900 0 
L 2900 538 
Q 2691 219 2414 64 
Q 2138 -91 1772 -91 
Q 1169 -91 856 284 
Q 544 659 544 1381 
z
M 1991 3584 
L 1991 3584 
z
" transform="scale(0.015625)"/>
       <path id="DejaVuSans-6d" d="M 3328 2828 
Q 3544 3216 3844 3400 
Q 4144 3584 4550 3584 
Q 5097 3584 5394 3201 
Q 5691 2819 5691 2113 
L 5691 0 
L 5113 0 
L 5113 2094 
Q 5113 2597 4934 2840 
Q 4756 3084 4391 3084 
Q 3944 3084 3684 2787 
Q 3425 2491 3425 1978 
L 3425 0 
L 2847 0 
L 2847 2094 
Q 2847 2600 2669 2842 
Q 2491 3084 2119 3084 
Q 1678 3084 1418 2786 
Q 1159 2488 1159 1978 
L 1159 0 
L 581 0 
L 581 3500 
L 1159 3500 
L 1159 2956 
Q 1356 3278 1631 3431 
Q 1906 3584 2284 3584 
Q 2666 3584 2933 3390 
Q 3200 3197 3328 2828 
z
" transform="scale(0.015625)"/>
       <path id="DejaVuSans-62" d="M 3116 1747 
Q 3116 2381 2855 2742 
Q 2594 3103 2138 3103 
Q 1681 3103 1420 2742 
Q 1159 2381 1159 1747 
Q 1159 1113 1420 752 
Q 1681 391 2138 391 
Q 2594 391 2855 752 
Q 3116 1113 3116 1747 
z
M 1159 2969 
Q 1341 3281 1617 3432 
Q 1894 3584 2278 3584 
Q 2916 3584 3314 3078 
Q 3713 2572 3713 1747 
Q 3713 922 3314 415 
Q 2916 -91 2278 -91 
Q 1894 -91 1617 61 
Q 1341 213 1159 525 
L 1159 0 
L 581 0 
L 581 4863 
L 1159 4863 
L 1159 2969 
z
" transform="scale(0.015625)"/>
       <path id="DejaVuSans-72" d="M 2631 2963 
Q 2534 3019 2420 3045 
Q 2306 3072 2169 3072 
Q 1681 3072 1420 2755 
Q 1159 2438 1159 1844 
L 1159 0 
L 581 0 
L 581 3500 
L 1159 3500 
L 1159 2956 
Q 1341 3275 1631 3429 
Q 1922 3584 2338 3584 
Q 2397 3584 2469 3576 
Q 2541 3569 2628 3553 
L 2631 2963 
z
" transform="scale(0.015625)"/>
       <path id="DejaVuSans-6f" d="M 1959 3097 
Q 1497 3097 1228 2736 
Q 959 2375 959 1747 
Q 959 1119 1226 758 
Q 1494 397 1959 397 
Q 2419 397 2687 759 
Q 2956 1122 2956 1747 
Q 2956 2369 2687 2733 
Q 2419 3097 1959 3097 
z
M 1959 3584 
Q 2709 3584 3137 3096 
Q 3566 2609 3566 1747 
Q 3566 888 3137 398 
Q 2709 -91 1959 -91 
Q 1206 -91 779 398 
Q 353 888 353 1747 
Q 353 2609 779 3096 
Q 1206 3584 1959 3584 
z
" transform="scale(0.015625)"/>
       <path id="DejaVuSans-66" d="M 2375 4863 
L 2375 4384 
L 1825 4384 
Q 1516 4384 1395 4259 
Q 1275 4134 1275 3809 
L 1275 3500 
L 2222 3500 
L 2222 3053 
L 1275 3053 
L 1275 0 
L 697 0 
L 697 3053 
L 147 3053 
L 147 3500 
L 697 3500 
L 697 3744 
Q 697 4328 969 4595 
Q 1241 4863 1831 4863 
L 2375 4863 
z
" transform="scale(0.015625)"/>
       <path id="DejaVuSans-63" d="M 3122 3366 
L 3122 2828 
Q 2878 2963 2633 3030 
Q 2388 3097 2138 3097 
Q 1578 3097 1268 2742 
Q 959 2388 959 1747 
Q 959 1106 1268 751 
Q 1578 397 2138 397 
Q 2388 397 2633 464 
Q 2878 531 3122 666 
L 3122 134 
Q 2881 22 2623 -34 
Q 2366 -91 2075 -91 
Q 1284 -91 818 406 
Q 353 903 353 1747 
Q 353 2603 823 3093 
Q 1294 3584 2113 3584 
Q 2378 3584 2631 3529 
Q 2884 3475 3122 3366 
z
" transform="scale(0.015625)"/>
       <path id="DejaVuSans-70" d="M 1159 525 
L 1159 -1331 
L 581 -1331 
L 581 3500 
L 1159 3500 
L 1159 2969 
Q 1341 3281 1617 3432 
Q 1894 3584 2278 3584 
Q 2916 3584 3314 3078 
Q 3713 2572 3713 1747 
Q 3713 922 3314 415 
Q 2916 -91 2278 -91 
Q 1894 -91 1617 61 
Q 1341 213 1159 525 
z
M 3116 1747 
Q 3116 2381 2855 2742 
Q 2594 3103 2138 3103 
Q 1681 3103 1420 2742 
Q 1159 2381 1159 1747 
Q 1159 1113 1420 752 
Q 1681 391 2138 391 
Q 2594 391 2855 752 
Q 3116 1113 3116 1747 
z
" transform="scale(0.015625)"/>
       <path id="DejaVuSans-69" d="M 603 3500 
L 1178 3500 
L 1178 0 
L 603 0 
L 603 3500 
z
M 603 4863 
L 1178 4863 
L 1178 4134 
L 603 4134 
L 603 4863 
z
" transform="scale(0.015625)"/>
       <path id="DejaVuSans-6c" d="M 603 4863 
L 1178 4863 
L 1178 0 
L 603 0 
L 603 4863 
z
" transform="scale(0.015625)"/>
       <path id="DejaVuSans-64" d="M 2906 2969 
L 2906 4863 
L 3481 4863 
L 3481 0 
L 2906 0 
L 2906 525 
Q 2725 213 2448 61 
Q 2172 -91 1784 -91 
Q 1150 -91 751 415 
Q 353 922 353 1747 
Q 353 2572 751 3078 
Q 1150 3584 1784 3584 
Q 2172 3584 2448 3432 
Q 2725 3281 2906 2969 
z
M 947 1747 
Q 947 1113 1208 752 
Q 1469 391 1925 391 
Q 2381 391 2643 752 
Q 2906 1113 2906 1747 
Q 2906 2381 2643 2742 
Q 2381 3103 1925 3103 
Q 1469 3103 1208 2742 
Q 947 2381 947 1747 
z
" transform="scale(0.015625)"/>
       <path id="DejaVuSans-56" d="M 1831 0 
L 50 4666 
L 709 4666 
L 2188 738 
L 3669 4666 
L 4325 4666 
L 2547 0 
L 1831 0 
z
" transform="scale(0.015625)"/>
       <path id="DejaVuSans-47" d="M 3809 666 
L 3809 1919 
L 2778 1919 
L 2778 2438 
L 4434 2438 
L 4434 434 
Q 4069 175 3628 42 
Q 3188 -91 2688 -91 
Q 1594 -91 976 548 
Q 359 1188 359 2328 
Q 359 3472 976 4111 
Q 1594 4750 2688 4750 
Q 3144 4750 3555 4637 
Q 3966 4525 4313 4306 
L 4313 3634 
Q 3963 3931 3569 4081 
Q 3175 4231 2741 4231 
Q 1884 4231 1454 3753 
Q 1025 3275 1025 2328 
Q 1025 1384 1454 906 
Q 1884 428 2741 428 
Q 3075 428 3337 486 
Q 3600 544 3809 666 
z
" transform="scale(0.015625)"/>
       <path id="DejaVuSans-50" d="M 1259 4147 
L 1259 2394 
L 2053 2394 
Q 2494 2394 2734 2622 
Q 2975 2850 2975 3272 
Q 2975 3691 2734 3919 
Q 2494 4147 2053 4147 
L 1259 4147 
z
M 628 4666 
L 2053 4666 
Q 2838 4666 3239 4311 
Q 3641 3956 3641 3272 
Q 3641 2581 3239 2228 
Q 2838 1875 2053 1875 
L 1259 1875 
L 1259 0 
L 628 0 
L 628 4666 
z
" transform="scale(0.015625)"/>
       <path id="DejaVuSans-73" d="M 2834 3397 
L 2834 2853 
Q 2591 2978 2328 3040 
Q 2066 3103 1784 3103 
Q 1356 3103 1142 2972 
Q 928 2841 928 2578 
Q 928 2378 1081 2264 
Q 1234 2150 1697 2047 
L 1894 2003 
Q 2506 1872 2764 1633 
Q 3022 1394 3022 966 
Q 3022 478 2636 193 
Q 2250 -91 1575 -91 
Q 1294 -91 989 -36 
Q 684 19 347 128 
L 347 722 
Q 666 556 975 473 
Q 1284 391 1588 391 
Q 1994 391 2212 530 
Q 2431 669 2431 922 
Q 2431 1156 2273 1281 
Q 2116 1406 1581 1522 
L 1381 1569 
Q 847 1681 609 1914 
Q 372 2147 372 2553 
Q 372 3047 722 3315 
Q 1072 3584 1716 3584 
Q 2034 3584 2315 3537 
Q 2597 3491 2834 3397 
z
" transform="scale(0.015625)"/>
      </defs>
      <use xlink:href="#DejaVuSans-4e"/>
      <use xlink:href="#DejaVuSans-75" x="74.804688"/>
      <use xlink:href="#DejaVuSans-6d" x="138.183594"/>
      <use xlink:href="#DejaVuSans-62" x="235.595703"/>
      <use xlink:href="#DejaVuSans-65" x="299.072266"/>
      <use xlink:href="#DejaVuSans-72" x="360.595703"/>
      <use xlink:href="#DejaVuSans-20" x="401.708984"/>
      <use xlink:href="#DejaVuSans-6f" x="433.496094"/>
      <use xlink:href="#DejaVuSans-66" x="494.677734"/>
      <use xlink:href="#DejaVuSans-20" x="529.882812"/>
      <use xlink:href="#DejaVuSans-63" x="561.669922"/>
      <use xlink:href="#DejaVuSans-6f" x="616.650391"/>
      <use xlink:href="#DejaVuSans-6d" x="677.832031"/>
      <use xlink:href="#DejaVuSans-70" x="775.244141"/>
      <use xlink:href="#DejaVuSans-69" x="838.720703"/>
      <use xlink:href="#DejaVuSans-6c" x="866.503906"/>
      <use xlink:href="#DejaVuSans-65" x="894.287109"/>
      <use xlink:href="#DejaVuSans-64" x="955.810547"/>
      <use xlink:href="#DejaVuSans-20" x="1019.287109"/>
      <use xlink:href="#DejaVuSans-56" x="1051.074219"/>
      <use xlink:href="#DejaVuSans-47" x="1119.482422"/>
      <use xlink:href="#DejaVuSans-50" x="1196.972656"/>
      <use xlink:href="#DejaVuSans-73" x="1255.525391"/>
     </g>
    </g>
   </g>
   <g id="patch_83">
    <path d="M 40.603125 188.638125 
L 40.603125 22.318125 
" style="fill: none; stroke: #000000; stroke-width: 0.8; stroke-linejoin: miter; stroke-linecap: square"/>
   </g>
   <g id="patch_84">
    <path d="M 877.603125 188.638125 
L 877.603125 22.318125 
" style="fill: none; stroke: #000000; stroke-width: 0.8; stroke-linejoin: miter; stroke-linecap: square"/>
   </g>
   <g id="patch_85">
    <path d="M 40.603125 188.638125 
L 877.603125 188.638125 
" style="fill: none; stroke: #000000; stroke-width: 0.8; stroke-linejoin: miter; stroke-linecap: square"/>
   </g>
   <g id="patch_86">
    <path d="M 40.603125 22.318125 
L 877.603125 22.318125 
" style="fill: none; stroke: #000000; stroke-width: 0.8; stroke-linejoin: miter; stroke-linecap: square"/>
   </g>
   <g id="text_15">
    <!-- Age distribution of compiled VGPs -->
    <g transform="translate(357.045 16.318125)scale(0.12 -0.12)">
     <defs>
      <path id="DejaVuSans-74" d="M 1172 4494 
L 1172 3500 
L 2356 3500 
L 2356 3053 
L 1172 3053 
L 1172 1153 
Q 1172 725 1289 603 
Q 1406 481 1766 481 
L 2356 481 
L 2356 0 
L 1766 0 
Q 1100 0 847 248 
Q 594 497 594 1153 
L 594 3053 
L 172 3053 
L 172 3500 
L 594 3500 
L 594 4494 
L 1172 4494 
z
" transform="scale(0.015625)"/>
     </defs>
     <use xlink:href="#DejaVuSans-41"/>
     <use xlink:href="#DejaVuSans-67" x="68.408203"/>
     <use xlink:href="#DejaVuSans-65" x="131.884766"/>
     <use xlink:href="#DejaVuSans-20" x="193.408203"/>
     <use xlink:href="#DejaVuSans-64" x="225.195312"/>
     <use xlink:href="#DejaVuSans-69" x="288.671875"/>
     <use xlink:href="#DejaVuSans-73" x="316.455078"/>
     <use xlink:href="#DejaVuSans-74" x="368.554688"/>
     <use xlink:href="#DejaVuSans-72" x="407.763672"/>
     <use xlink:href="#DejaVuSans-69" x="448.876953"/>
     <use xlink:href="#DejaVuSans-62" x="476.660156"/>
     <use xlink:href="#DejaVuSans-75" x="540.136719"/>
     <use xlink:href="#DejaVuSans-74" x="603.515625"/>
     <use xlink:href="#DejaVuSans-69" x="642.724609"/>
     <use xlink:href="#DejaVuSans-6f" x="670.507812"/>
     <use xlink:href="#DejaVuSans-6e" x="731.689453"/>
     <use xlink:href="#DejaVuSans-20" x="795.068359"/>
     <use xlink:href="#DejaVuSans-6f" x="826.855469"/>
     <use xlink:href="#DejaVuSans-66" x="888.037109"/>
     <use xlink:href="#DejaVuSans-20" x="923.242188"/>
     <use xlink:href="#DejaVuSans-63" x="955.029297"/>
     <use xlink:href="#DejaVuSans-6f" x="1010.009766"/>
     <use xlink:href="#DejaVuSans-6d" x="1071.191406"/>
     <use xlink:href="#DejaVuSans-70" x="1168.603516"/>
     <use xlink:href="#DejaVuSans-69" x="1232.080078"/>
     <use xlink:href="#DejaVuSans-6c" x="1259.863281"/>
     <use xlink:href="#DejaVuSans-65" x="1287.646484"/>
     <use xlink:href="#DejaVuSans-64" x="1349.169922"/>
     <use xlink:href="#DejaVuSans-20" x="1412.646484"/>
     <use xlink:href="#DejaVuSans-56" x="1444.433594"/>
     <use xlink:href="#DejaVuSans-47" x="1512.841797"/>
     <use xlink:href="#DejaVuSans-50" x="1590.332031"/>
     <use xlink:href="#DejaVuSans-73" x="1648.884766"/>
    </g>
   </g>
  </g>
 </g>
 <defs>
  <clipPath id="p8cc206c358">
   <rect x="40.603125" y="22.318125" width="837" height="166.32"/>
  </clipPath>
 </defs>
</svg>
